<svg fill="none" height="77" width="200" xmlns="http://www.w3.org/2000/svg" xmlns:xlink="http://www.w3.org/1999/xlink"><linearGradient id="a"><stop offset="0" stop-color="#87f2e7"/><stop offset="1" stop-color="#2e37f2"/></linearGradient><linearGradient id="b" gradientUnits="userSpaceOnUse" x1="4.231" x2="69.891" xlink:href="#a" y1="-4.26" y2="25.746"/><linearGradient id="c" gradientUnits="userSpaceOnUse" x1="-2.883" x2="62.777" xlink:href="#a" y1="11.308" y2="41.314"/><linearGradient id="d" gradientUnits="userSpaceOnUse" x1="-10.77" x2="54.891" xlink:href="#a" y1="28.566" y2="58.572"/><linearGradient id="e" gradientUnits="userSpaceOnUse" x1="-11.026" x2="76.05" xlink:href="#a" y1="27.355" y2="32.061"/><linearGradient id="f" gradientUnits="userSpaceOnUse" x1="-17.485" x2="48.175" xlink:href="#a" y1="43.26" y2="73.266"/><linearGradient id="g" gradientUnits="userSpaceOnUse" x1="2.854" x2="68.514" xlink:href="#a" y1="-1.245" y2="28.761"/><linearGradient id="h" gradientUnits="userSpaceOnUse" x1="-4.698" x2="60.962" xlink:href="#a" y1="15.281" y2="45.287"/><linearGradient id="i" gradientUnits="userSpaceOnUse" x1="-12.641" x2="53.019" xlink:href="#a" y1="32.66" y2="62.666"/><linearGradient id="j" gradientUnits="userSpaceOnUse" x1="-19.013" x2="46.647" xlink:href="#a" y1="46.604" y2="76.61"/><linearGradient id="k" gradientUnits="userSpaceOnUse" x1="-10.898" x2="77.119" xlink:href="#a" y1="31.846" y2="65.499"/><linearGradient id="l" gradientUnits="userSpaceOnUse" x1="-.122" x2="65.538" xlink:href="#a" y1="5.265" y2="35.271"/><linearGradient id="m" gradientUnits="userSpaceOnUse" x1="2.169" x2="67.829" xlink:href="#a" y1=".253" y2="30.259"/><linearGradient id="n" gradientUnits="userSpaceOnUse" x1="-9.676" x2="77.401" xlink:href="#a" y1="2.368" y2="7.074"/><linearGradient id="o" gradientUnits="userSpaceOnUse" x1="-5.387" x2="60.273" xlink:href="#a" y1="16.787" y2="46.793"/><linearGradient id="p" gradientUnits="userSpaceOnUse" x1="-15.449" x2="50.211" xlink:href="#a" y1="38.807" y2="68.813"/><linearGradient id="q" gradientUnits="userSpaceOnUse" x1="-13.053" x2="52.607" xlink:href="#a" y1="33.563" y2="63.569"/><linearGradient id="r" gradientUnits="userSpaceOnUse" x1="-8.901" x2="56.759" xlink:href="#a" y1="24.477" y2="54.483"/><linearGradient id="s" gradientUnits="userSpaceOnUse" x1="-16.282" x2="49.378" xlink:href="#a" y1="40.63" y2="70.636"/><clipPath id="t"><path d="m0 0h79.922v76.118h-79.922z"/></clipPath><clipPath id="u"><path d="m0 0h6.14v6.14h-6.14z" transform="matrix(.63521 -.77234 .35118 .9363 70.533 63.567)"/></clipPath><clipPath id="v"><path d="m0 0h6.14v6.14h-6.14z" transform="matrix(.97593 -.2181 -.29915 .9542 5.684 20.878)"/></clipPath><clipPath id="w"><path d="m0 0h7.024v4.851h-7.024z" transform="matrix(.84775 .5304 -.21743 .97608 66.864 2.322)"/></clipPath><clipPath id="x"><path d="m0 0h4.898v4.898h-4.898z" transform="matrix(.66921 .74307 -.30884 .95111 7.06 50.858)"/></clipPath><clipPath id="y"><path d="m0 0h6.416v6.416h-6.416z" transform="matrix(.5304 -.84775 .4689 .88325 70.622 31.832)"/></clipPath><clipPath id="z"><path d="m0 0h8.197v7.574h-8.197z" transform="matrix(-.9986 .05285 -.44659 -.89474 34.179 71.788)"/></clipPath><clipPath id="A"><path d="m0 0h8.377v7.741h-8.377z" transform="matrix(-.04716 -.99889 .92375 -.383 51.337 28.246)"/></clipPath><clipPath id="B"><path d="m0 0h9.75v11.301h-9.75z" transform="matrix(.66370431 -.74799505 .74799505 .66370431 48.601403 54.814132)"/></clipPath><path d="m95.666 59v-6.39h4.293v1.089h-3.051v1.647h2.538v1.008h-2.538v2.646zm5.051-5.373v-1.197h1.206v1.197zm0 5.373v-4.716h1.206v4.716zm6.677 0h-1.206v-2.646c0-.378-.066-.654-.198-.828a.65.65 0 0 0 -.549-.261c-.162 0-.327.042-.495.126a1.518 1.518 0 0 0 -.441.351 1.317 1.317 0 0 0 -.288.504v2.754h-1.206v-4.716h1.089v.873c.174-.294.426-.525.756-.693.33-.174.702-.261 1.116-.261.294 0 .534.054.72.162.186.102.33.243.432.423.102.174.171.372.207.594.042.222.063.447.063.675zm.725-1.395c0-.306.084-.573.252-.801a1.66 1.66 0 0 1 .72-.54 2.747 2.747 0 0 1 1.053-.189c.198 0 .399.018.603.054.204.03.381.075.531.135v-.252c0-.3-.09-.531-.27-.693-.174-.162-.435-.243-.783-.243-.258 0-.504.045-.738.135s-.48.222-.738.396l-.387-.792c.312-.204.63-.357.954-.459.33-.102.675-.153 1.035-.153.672 0 1.194.168 1.566.504.378.336.567.816.567 1.44v1.503c0 .132.021.225.063.279.042.048.117.078.225.09v.981a1.99 1.99 0 0 1 -.297.045 1.562 1.562 0 0 1 -.216.018c-.24 0-.423-.054-.549-.162a.636.636 0 0 1 -.225-.396l-.027-.243c-.21.27-.468.477-.774.621-.3.138-.609.207-.927.207s-.6-.063-.846-.189a1.564 1.564 0 0 1 -.585-.531 1.448 1.448 0 0 1 -.207-.765zm2.934.243c.15-.144.225-.282.225-.414v-.477a2.505 2.505 0 0 0 -.945-.189c-.318 0-.576.069-.774.207a.61.61 0 0 0 -.297.531c0 .18.072.342.216.486s.351.216.621.216c.18 0 .354-.033.522-.099.174-.066.318-.153.432-.261zm6.941 1.152h-1.206v-2.646c0-.378-.066-.654-.198-.828a.65.65 0 0 0 -.549-.261c-.162 0-.327.042-.495.126a1.518 1.518 0 0 0 -.441.351 1.317 1.317 0 0 0 -.288.504v2.754h-1.206v-4.716h1.089v.873c.174-.294.426-.525.756-.693.33-.174.702-.261 1.116-.261.294 0 .534.054.72.162.186.102.33.243.432.423.102.174.171.372.207.594.042.222.063.447.063.675zm3.244.09c-.51 0-.951-.114-1.323-.342a2.39 2.39 0 0 1 -.864-.9 2.468 2.468 0 0 1 -.306-1.206c0-.438.099-.843.297-1.215.204-.372.492-.669.864-.891s.813-.333 1.323-.333c.516 0 .954.111 1.314.333.366.222.639.513.819.873l-1.179.36c-.21-.36-.531-.54-.963-.54a1.185 1.185 0 0 0 -1.071.675c-.108.21-.162.456-.162.738 0 .276.054.522.162.738.114.21.264.378.45.504.186.12.393.18.621.18.216 0 .414-.051.594-.153a.894.894 0 0 0 .387-.405l1.179.36c-.162.354-.432.648-.81.882-.372.228-.816.342-1.332.342zm5.027 0c-.51 0-.951-.111-1.323-.333a2.363 2.363 0 0 1 -.855-.882 2.468 2.468 0 0 1 -.306-1.206c0-.444.099-.852.297-1.224.204-.378.492-.678.864-.9.372-.228.816-.342 1.332-.342s.957.114 1.323.342c.366.222.645.519.837.891.198.366.297.762.297 1.188 0 .156-.009.291-.027.405h-3.645c.03.366.165.654.405.864.246.21.528.315.846.315.24 0 .465-.057.675-.171a.946.946 0 0 0 .441-.468l1.035.288c-.174.36-.453.657-.837.891-.384.228-.837.342-1.359.342zm-1.233-2.826h2.466c-.036-.354-.171-.639-.405-.855a1.154 1.154 0 0 0 -.837-.333c-.324 0-.603.111-.837.333-.228.216-.357.501-.387.855zm11.566-.936c-.366 0-.693.072-.981.216a1.266 1.266 0 0 0 -.621.603v2.853h-1.206v-4.716h1.107v1.008a2.05 2.05 0 0 1 .63-.765c.264-.186.54-.288.828-.306.126 0 .207.003.243.009zm2.798 3.762c-.51 0-.951-.111-1.323-.333a2.363 2.363 0 0 1 -.855-.882 2.468 2.468 0 0 1 -.306-1.206c0-.444.099-.852.297-1.224.204-.378.492-.678.864-.9.372-.228.816-.342 1.332-.342s.957.114 1.323.342c.366.222.645.519.837.891.198.366.297.762.297 1.188 0 .156-.009.291-.027.405h-3.645c.03.366.165.654.405.864.246.21.528.315.846.315.24 0 .465-.057.675-.171a.946.946 0 0 0 .441-.468l1.035.288c-.174.36-.453.657-.837.891-.384.228-.837.342-1.359.342zm-1.233-2.826h2.466c-.036-.354-.171-.639-.405-.855a1.154 1.154 0 0 0 -.837-.333c-.324 0-.603.111-.837.333-.228.216-.357.501-.387.855zm4.498 2.736v-6.39h2.322c.696 0 1.278.144 1.746.432.468.282.819.666 1.053 1.152.234.48.351 1.014.351 1.602 0 .648-.129 1.212-.387 1.692s-.624.852-1.098 1.116-1.029.396-1.665.396zm4.221-3.204c0-.414-.075-.777-.225-1.089a1.692 1.692 0 0 0 -.648-.738c-.282-.18-.624-.27-1.026-.27h-1.08v4.212h1.08c.408 0 .753-.09 1.035-.27a1.75 1.75 0 0 0 .639-.756c.15-.324.225-.687.225-1.089zm4.292 3.294c-.51 0-.951-.111-1.323-.333a2.363 2.363 0 0 1 -.855-.882 2.468 2.468 0 0 1 -.306-1.206c0-.444.099-.852.297-1.224.204-.378.492-.678.864-.9.372-.228.816-.342 1.332-.342s.957.114 1.323.342c.366.222.645.519.837.891.198.366.297.762.297 1.188 0 .156-.009.291-.027.405h-3.645c.03.366.165.654.405.864.246.21.528.315.846.315.24 0 .465-.057.675-.171a.946.946 0 0 0 .441-.468l1.035.288c-.174.36-.453.657-.837.891-.384.228-.837.342-1.359.342zm-1.233-2.826h2.466c-.036-.354-.171-.639-.405-.855a1.154 1.154 0 0 0 -.837-.333c-.324 0-.603.111-.837.333-.228.216-.357.501-.387.855zm4.497 2.736v-6.39h4.293v1.089h-3.051v1.647h2.538v1.008h-2.538v2.646zm5.051-5.373v-1.197h1.206v1.197zm0 5.373v-4.716h1.206v4.716zm6.677 0h-1.206v-2.646c0-.378-.066-.654-.198-.828a.65.65 0 0 0 -.549-.261c-.162 0-.327.042-.495.126a1.518 1.518 0 0 0 -.441.351 1.317 1.317 0 0 0 -.288.504v2.754h-1.206v-4.716h1.089v.873c.174-.294.426-.525.756-.693.33-.174.702-.261 1.116-.261.294 0 .534.054.72.162.186.102.33.243.432.423.102.174.171.372.207.594.042.222.063.447.063.675zm3.236.09c-.51 0-.951-.111-1.323-.333a2.363 2.363 0 0 1 -.855-.882 2.468 2.468 0 0 1 -.306-1.206c0-.444.099-.852.297-1.224.204-.378.492-.678.864-.9.372-.228.816-.342 1.332-.342s.957.114 1.323.342c.366.222.645.519.837.891.198.366.297.762.297 1.188 0 .156-.009.291-.027.405h-3.645c.03.366.165.654.405.864.246.21.528.315.846.315.24 0 .465-.057.675-.171a.946.946 0 0 0 .441-.468l1.035.288c-.174.36-.453.657-.837.891-.384.228-.837.342-1.359.342zm-1.233-2.826h2.466c-.036-.354-.171-.639-.405-.855a1.154 1.154 0 0 0 -.837-.333c-.324 0-.603.111-.837.333-.228.216-.357.501-.387.855zm4.146.378c0-.45.09-.861.27-1.233s.429-.666.747-.882a1.892 1.892 0 0 1 1.089-.324c.348 0 .66.087.936.261.282.168.501.384.657.648v-2.682h1.206v5.22c0 .132.021.225.063.279.042.048.114.078.216.09v.981a2.85 2.85 0 0 1 -.513.063.875.875 0 0 1 -.54-.162.594.594 0 0 1 -.234-.423l-.018-.297a1.75 1.75 0 0 1 -.711.675 1.95 1.95 0 0 1 -.927.234 2.1 2.1 0 0 1 -1.161-.324 2.341 2.341 0 0 1 -.792-.882 2.667 2.667 0 0 1 -.288-1.242zm3.699.63v-1.125a1.403 1.403 0 0 0 -.495-.657c-.234-.174-.474-.261-.72-.261s-.462.069-.648.207c-.186.132-.33.309-.432.531-.102.216-.153.45-.153.702 0 .258.057.495.171.711.114.21.267.378.459.504.198.12.423.18.675.18.228 0 .453-.075.675-.225a1.15 1.15 0 0 0 .468-.567z" fill="#87f2e7"/><path d="m105.387 32.57c-.122-.136-.378-.31-.769-.526a6.963 6.963 0 0 0 -1.415-.607 5.045 5.045 0 0 0 -1.678-.283c-1.523 0-2.285.54-2.285 1.618 0 .39.122.7.364.93.243.229.607.424 1.092.586s1.092.337 1.82.526c.943.242 1.759.525 2.446.849.701.323 1.233.755 1.597 1.294.378.526.567 1.227.567 2.103 0 1.024-.25 1.853-.749 2.486-.485.62-1.132 1.072-1.941 1.355a7.9 7.9 0 0 1 -2.628.425c-1.078 0-2.15-.162-3.215-.485a10.295 10.295 0 0 1 -2.81-1.375l1.233-2.406c.121.12.337.283.647.485.31.189.688.384 1.132.586.445.189.93.35 1.456.486a6.406 6.406 0 0 0 1.597.202c1.537 0 2.305-.492 2.305-1.476 0-.418-.155-.755-.465-1.011s-.748-.472-1.314-.647c-.553-.175-1.2-.37-1.941-.587-.917-.256-1.678-.539-2.285-.849-.593-.323-1.038-.721-1.334-1.193-.297-.485-.445-1.098-.445-1.84 0-.984.23-1.806.688-2.466a4.323 4.323 0 0 1 1.9-1.517c.795-.35 1.678-.526 2.649-.526.997 0 1.927.162 2.79.486.863.323 1.604.694 2.224 1.112l-1.233 2.264zm3.847 10.594v-14.354h6.086c.66 0 1.267.134 1.82.404.566.27 1.051.633 1.455 1.092.405.458.721.97.951 1.537.229.566.343 1.145.343 1.738 0 .809-.188 1.577-.566 2.305a4.773 4.773 0 0 1 -1.577 1.78c-.66.458-1.435.687-2.325.687h-3.397v4.812h-2.79zm2.79-7.258h3.235c.512 0 .937-.21 1.274-.627.35-.432.526-.998.526-1.699 0-.741-.196-1.314-.587-1.718-.391-.405-.835-.607-1.334-.607h-3.114v4.65zm21.878-7.097v14.355h-2.77v-6.126h-6.51v6.126h-2.791v-14.354h2.791v5.802h6.51v-5.802h2.77zm12.963 11.909v2.446h-9.968v-14.354h9.786v2.446h-6.996v3.457h6.045v2.265h-6.045v3.74zm2.175 2.446v-14.354h6.349c.66 0 1.267.134 1.819.404.567.27 1.052.633 1.456 1.092.418.458.735.97.951 1.537.229.566.343 1.145.343 1.738 0 .917-.236 1.76-.707 2.528a3.942 3.942 0 0 1 -1.881 1.658l3.276 5.398h-3.074l-2.952-4.812h-2.79v4.812h-2.79zm2.79-7.258h3.498c.526 0 .957-.223 1.294-.668.351-.458.526-1.01.526-1.658 0-.444-.095-.842-.283-1.193a2.308 2.308 0 0 0 -.728-.829 1.565 1.565 0 0 0 -.93-.303h-3.377v4.65zm10.656 7.258v-14.354h2.791v14.355h-2.791zm11.872.101c-1.146 0-2.123-.189-2.932-.566a5.254 5.254 0 0 1 -1.941-1.597 6.989 6.989 0 0 1 -1.072-2.285 10.437 10.437 0 0 1 -.343-2.69v-7.317h2.79v7.319c0 .795.108 1.55.323 2.264.216.715.58 1.294 1.092 1.74.512.444 1.2.666 2.062.666.89 0 1.591-.222 2.103-.667.512-.458.876-1.044 1.092-1.759a7.712 7.712 0 0 0 .323-2.244v-7.32h2.77v7.32c0 .984-.121 1.907-.363 2.77a6.34 6.34 0 0 1 -1.113 2.285c-.498.647-1.145 1.159-1.941 1.536-.795.364-1.745.546-2.85.546zm20.785-.1v-9.423l-3.68 7.016h-1.557l-3.68-7.016v9.422h-2.79v-14.354h2.992l4.246 8.168 4.287-8.168h2.972v14.355zm-23.399-24.317h-.552v-.816h.552v-.256c0-.31.067-.592.2-.848a1.62 1.62 0 0 1 .584-.616c.256-.155.563-.232.92-.232.304 0 .581.05.832.152.256.096.496.219.72.368l-.424.8a1.659 1.659 0 0 0 -1.056-.408c-.24 0-.419.075-.536.224a.843.843 0 0 0 -.168.52v.296h2.248v3.968h-1.072v-3.152h-1.176v3.152h-1.072zm8.187 3.152h-1.072v-2.352c0-.336-.059-.581-.176-.736a.578.578 0 0 0 -.488-.232.978.978 0 0 0 -.44.112 1.346 1.346 0 0 0 -.392.312 1.17 1.17 0 0 0 -.256.448v2.448h-1.072v-4.192h.968v.776c.155-.261.379-.467.672-.616.293-.155.624-.232.992-.232.261 0 .475.048.64.144a.97.97 0 0 1 .384.376c.091.155.152.33.184.528.037.197.056.397.056.6zm.644-1.24c0-.272.075-.51.224-.712.155-.208.368-.368.64-.48s.584-.168.936-.168c.176 0 .355.016.536.048.181.027.339.067.472.12v-.224c0-.267-.08-.472-.24-.616-.155-.144-.387-.216-.696-.216-.229 0-.448.04-.656.12s-.427.197-.656.352l-.344-.704a3.43 3.43 0 0 1 .848-.408c.293-.09.6-.136.92-.136.597 0 1.061.15 1.392.448.336.299.504.725.504 1.28v1.336c0 .117.019.2.056.248.037.043.104.07.2.08v.872a1.768 1.768 0 0 1 -.264.04c-.075.01-.139.016-.192.016-.213 0-.376-.048-.488-.144a.564.564 0 0 1 -.2-.352l-.024-.216c-.187.24-.416.424-.688.552a1.951 1.951 0 0 1 -.824.184c-.283 0-.533-.056-.752-.168a1.388 1.388 0 0 1 -.52-.472 1.284 1.284 0 0 1 -.184-.68zm2.608.216c.133-.128.2-.25.2-.368v-.424a2.224 2.224 0 0 0 -.84-.168c-.283 0-.512.061-.688.184a.542.542 0 0 0 -.264.472c0 .16.064.304.192.432s.312.192.552.192c.16 0 .315-.03.464-.088a1.13 1.13 0 0 0 .384-.232zm6.17 1.024h-1.072v-2.352c0-.336-.059-.581-.176-.736a.579.579 0 0 0 -.488-.232.978.978 0 0 0 -.44.112 1.346 1.346 0 0 0 -.392.312 1.158 1.158 0 0 0 -.256.448v2.448h-1.072v-4.192h.968v.776c.154-.261.378-.467.672-.616.293-.155.624-.232.992-.232.261 0 .474.048.64.144a.97.97 0 0 1 .384.376c.09.155.152.33.184.528.037.197.056.397.056.6zm2.884.08c-.453 0-.845-.101-1.176-.304a2.12 2.12 0 0 1 -.768-.8 2.198 2.198 0 0 1 -.272-1.072c0-.39.088-.75.264-1.08a2.06 2.06 0 0 1 .768-.792c.331-.197.723-.296 1.176-.296.459 0 .848.099 1.168.296.325.197.568.456.728.776l-1.048.32c-.187-.32-.472-.48-.856-.48a1.055 1.055 0 0 0 -.952.6 1.416 1.416 0 0 0 -.144.656c0 .245.048.464.144.656.101.187.235.336.4.448.165.107.349.16.552.16.192 0 .368-.045.528-.136a.796.796 0 0 0 .344-.36l1.048.32a1.806 1.806 0 0 1 -.72.784c-.331.203-.725.304-1.184.304zm4.468 0c-.453 0-.845-.099-1.176-.296a2.108 2.108 0 0 1 -.76-.784 2.198 2.198 0 0 1 -.272-1.072c0-.395.088-.757.264-1.088a2.06 2.06 0 0 1 .768-.8c.331-.203.726-.304 1.184-.304.459 0 .851.101 1.176.304.326.197.574.461.744.792.176.325.264.677.264 1.056 0 .139-.008.259-.024.36h-3.24c.027.325.147.581.36.768.219.187.47.28.752.28.214 0 .414-.05.6-.152a.84.84 0 0 0 .392-.416l.92.256a1.88 1.88 0 0 1 -.744.792c-.341.203-.744.304-1.208.304zm-1.096-2.512h2.192a1.153 1.153 0 0 0 -.36-.76 1.024 1.024 0 0 0 -.744-.296c-.288 0-.536.099-.744.296-.202.192-.317.445-.344.76z" fill="#fff"/><g clip-path="url(#t)"><path d="m31.207 16.45c-1.342-1.059-2.613-2.047-3.813-3.035-.565-.495-1.059-.918-1.553-1.342 1.412-2.047 2.824-4.236 5.366-6.425 2.47-.565 5.295-1.13 9.32-1.624.352.283.705.636 1.058.918.777.706 1.694 1.412 2.612 2.118-1.27 1.412-2.541 3.036-3.953 6.002-3.248 1.2-5.79 2.118-9.037 3.388z" fill="url(#b)"/><path d="m18.852 31.841a135.05 135.05 0 0 1 -4.378-3.53c-.635-.565-1.27-1.059-1.835-1.553.706-2.895 1.482-5.93 3.106-9.531 2.189-1.2 4.73-2.542 8.614-4.025.494.424 1.059.918 1.623 1.412 1.2 1.06 2.542 2.048 3.884 3.107-.777 2.471-1.624 5.013-2.33 9.178-2.824 1.483-5.507 2.965-8.684 4.942z" fill="url(#c)"/><path d="m11.579 49.21a67.016 67.016 0 0 1 -4.024-3.248c-.565-.494-1.13-.988-1.624-1.483-.353-2.965-.565-6.071-.283-10.237 1.412-1.624 3.036-3.53 6.072-5.86.565.494 1.2 1.06 1.836 1.624a89.234 89.234 0 0 0 4.448 3.53c-.212 2.824-.494 6.072-.353 10.59-2.118 1.554-4.095 3.036-6.072 5.084z" fill="url(#d)"/><path d="m73.85 42.361a66.964 66.964 0 0 0 4.025-3.247c.565-.495 1.13-.989 1.624-1.483.282-3.036.565-6.072.282-10.237-1.412-1.624-3.036-3.53-6.072-5.86-.564.494-1.2 1.059-1.835 1.623a89.234 89.234 0 0 1 -4.448 3.53c.212 2.825.494 6.072.353 10.591 2.189 1.553 4.095 3.036 6.072 5.083z" fill="url(#e)"/><path d="m10.944 63.966c-.989-.777-1.977-1.554-2.824-2.26-.424-.353-.777-.706-1.13-.988-1.13-2.471-2.26-5.013-3.318-8.755.423-2.188.635-3.46 1.977-5.79.494.495 1.059.919 1.624 1.413 1.2 1.059 2.541 2.118 3.953 3.177.494 2.542.989 5.436 2.048 9.037-.918 1.2-1.906 2.471-2.33 4.166z" fill="url(#f)"/><path d="m55 31.136c-2.542-1.342-5.155-2.683-7.696-4.166.212-2.824.353-5.578.917-8.755 2.33-1.27 4.59-2.541 6.99-4.095 1.765.989 3.46 1.977 5.225 2.824.212 2.4.423 4.307.917 8.332-1.623 1.694-3.247 3.388-6.354 5.86z" fill="url(#g)"/><path d="m46.316 48.786a153.117 153.117 0 0 1 -8.825-4.8c.07-3.602.141-6.708.353-10.38 3.954-2.33 6.001-3.459 8.614-5.083a212.981 212.981 0 0 0 7.837 4.236c.14 3.319.352 6.708.494 10.026-2.26 1.765-4.519 3.389-8.473 6.001z" fill="url(#h)"/><path d="m36.713 64.672c-2.682-1.412-5.436-2.824-8.119-4.378-.212-3.46-.424-6-.565-9.39 6.637-4.024 6.637-4.024 8.543-5.224 2.895 1.694 5.86 3.247 8.825 4.8-.07 6.496-.07 7.696-.14 9.814-2.542 1.342-4.802 2.542-8.544 4.378z" fill="url(#i)"/><path d="m28.594 74.768c-1.906-.989-3.813-1.977-5.648-3.107-.636-3.247-.918-4.73-1.271-6.495 1.765-1.06 2.965-1.836 6.283-3.671 2.613 1.482 5.296 2.965 7.908 4.306-.07 2.33-.07 4.59-.353 6.849-5.366 1.765-6.92 2.118-6.92 2.118z" fill="url(#j)"/><path d="m73.497 69.896c1.624-1.2 3.319-2.471 4.942-3.742.777-3.106 1.13-4.518 1.483-6.213-1.412-.706-2.4-1.27-5.013-2.4-2.26 1.765-4.589 3.53-6.919 5.224-.141 2.189-.212 4.236-.141 6.284 4.377.776 5.648.847 5.648.847z" fill="#c4c4c4"/><path d="m73.497 69.896c1.624-1.2 3.319-2.471 4.942-3.742.777-3.106 1.13-4.518 1.483-6.213-1.412-.706-2.4-1.27-5.013-2.4-2.26 1.765-4.589 3.53-6.919 5.224-.141 2.189-.212 4.236-.141 6.284 4.377.776 5.648.847 5.648.847z" fill="url(#k)"/><path d="m37.066 31.912a247.67 247.67 0 0 1 -7.766-5.082c.565-2.824 1.13-5.72 2.26-9.108 3.176-1.27 4.659-1.906 9.036-3.53a232.183 232.183 0 0 0 6.143 4.024c-.353 2.33-.777 4.73-1.06 8.755-3.388 1.977-3.883 2.26-8.613 4.942z" fill="url(#l)"/><path d="m15.816 15.815c-1.2-1.342-2.118-2.542-2.683-3.53 2.189-2.825 3.389-4.378 6.354-6.849 2.118-.918 4.59-1.906 8.26-2.824.424.777 1.13 1.695 2.119 2.754-2.26 2.188-3.53 3.388-5.507 6.424-2.542 1.2-5.296 2.26-8.543 4.025z" fill="url(#m)"/><path d="m74.345 13.203c1.2-1.342 2.118-2.542 2.683-3.53-2.189-2.825-3.39-4.378-6.355-6.849-2.118-.918-4.589-1.906-8.26-2.824-.424.777-1.13 1.694-2.118 2.753 2.26 2.19 3.53 3.39 5.507 6.425 2.612 1.13 5.366 2.189 8.543 4.025z" fill="url(#n)"/><path d="m27.111 49.28a173.09 173.09 0 0 1 -7.978-5.224c0-3.39-.07-6.284.424-10.59 2.471-1.554 4.66-2.895 8.684-5.084 2.471 1.694 5.154 3.46 7.837 5.083-.212 3.177-.353 5.507-.424 10.45a348.241 348.241 0 0 1 -8.543 5.365z" fill="#87f2e7"/><path d="m5.295 32.689c-1.27-1.342-2.188-2.613-2.753-3.6.706-2.896 1.412-5.86 3.248-9.673 1.553-1.836 3.106-3.672 6.071-5.79.565.989 1.412 2.189 2.683 3.53-1.13 2.613-2.259 5.296-3.177 9.532-1.977 1.765-4.024 3.53-6.072 6z" fill="url(#o)"/><path d="m20.758 63.966a173.347 173.347 0 0 1 -6.495-4.236c-.636-2.613-1.271-5.296-1.907-9.108 1.483-1.412 3.036-2.824 6.002-5.013a192.55 192.55 0 0 0 7.907 5.154c.212 3.177.282 5.083.636 9.32-2.19 1.412-4.166 2.612-6.143 3.883z" fill="url(#p)"/><path d="m3.107 50.551c-1.059-1.13-1.765-2.118-2.189-2.965-.494-2.824-.917-5.648-.847-9.602.353-2.118.706-4.307 2.048-7.131.564 1.06 1.482 2.189 2.683 3.6-.071 2.754-.212 5.931.282 10.167-.847 1.695-1.694 3.46-1.977 5.931z" fill="url(#q)"/><path d="m55.564 63.754a135.19 135.19 0 0 1 -8.33-3.6c.07-2.26.14-5.437.14-9.815 2.754-1.906 5.437-3.67 8.473-6.071a133.65 133.65 0 0 0 8.26 3.6c.142 3.177.353 6.143.142 9.814-2.26 1.765-4.801 3.742-8.685 6.072z" fill="url(#r)"/><path d="m43.916 75.756a90.202 90.202 0 0 1 -6.778-2.965c.212-1.694.423-3.53.565-6.92 2.753-1.27 5.295-2.47 8.613-4.306 2.824 1.342 5.648 2.542 8.26 3.6-.353 2.33-.706 4.802-1.623 7.343-6.708 2.754-9.038 3.248-9.038 3.248z" fill="url(#s)"/><g fill="#fff"><g clip-path="url(#u)"><path d="m73.89 64.939-1.349.55 2.101 1.453.036-4.052-.787 2.049zm-.498.635.64-.26.372-.971-.017 1.919-.995-.689z"/><path d="m74.511 62.582-2.024-1.389-.041 3.9 1.303-.535zm-1.77-.711 1.155.791-.744.306-.434 1.127zm.552 1.47.761-.312-.445 1.155-.762.313.446-1.155z"/></g><g clip-path="url(#v)"><path d="m7.486 24.025-1.402-.397.762 2.439 2.522-3.173-1.882 1.13zm-.783.194.664.187.89-.535-1.193 1.502z"/><path d="m9.425 22.547-.742-2.34-2.431 3.05 1.356.38zm-.958-1.65.423 1.335-.773-.216-1.037.62 1.387-1.738zm-.47 1.5.793.222-1.062.637-.793-.223z"/></g><g clip-path="url(#w)"><path d="m71.793 6.195a5.916 5.916 0 0 0 -1.951-2.01c-.796-.498-1.598-.72-2.26-.624-.662.095-1.104.496-1.245 1.128-.141.633.036 1.421.5 2.22a5.916 5.916 0 0 0 1.95 2.01c.265.166.533.303.798.407.049.019.084-.002.08-.046-.004-.045-.047-.096-.095-.115a4.587 4.587 0 0 1 -.752-.383 5.573 5.573 0 0 1 -1.838-1.894c-.436-.752-.603-1.495-.47-2.09.133-.596.55-.973 1.173-1.063s1.379.119 2.128.588a5.573 5.573 0 0 1 1.837 1.893c.436.753.603 1.495.47 2.09-.132.596-.548.974-1.172 1.063a2.476 2.476 0 0 1 -.986-.076c-.048-.012-.077.015-.066.062a.161.161 0 0 0 .105.108c.375.1.728.126 1.048.08.662-.095 1.104-.496 1.245-1.128.14-.632-.037-1.42-.5-2.22z"/><path d="m71.793 6.195a5.916 5.916 0 0 0 -1.951-2.01c-.796-.498-1.598-.72-2.26-.624-.662.095-1.104.496-1.245 1.128-.141.633.036 1.421.5 2.22a5.916 5.916 0 0 0 1.95 2.01c.265.166.533.303.798.407.049.019.084-.002.08-.046-.004-.045-.047-.096-.095-.115a4.587 4.587 0 0 1 -.752-.383 5.573 5.573 0 0 1 -1.838-1.894c-.436-.752-.603-1.495-.47-2.09.133-.596.55-.973 1.173-1.063s1.379.119 2.128.588a5.573 5.573 0 0 1 1.837 1.893c.436.753.603 1.495.47 2.09-.132.596-.548.974-1.172 1.063a2.476 2.476 0 0 1 -.986-.076c-.048-.012-.077.015-.066.062a.161.161 0 0 0 .105.108c.375.1.728.126 1.048.08.662-.095 1.104-.496 1.245-1.128.14-.632-.037-1.42-.5-2.22z"/><path d="m67.692 4.158c-.033-.047-.089-.075-.124-.062-.405.143-.67.448-.767.883-.246 1.103.683 2.706 2.07 3.574s2.715.676 2.96-.427c.246-1.102-.682-2.706-2.07-3.574-.65-.407-1.311-.595-1.862-.532-.04.005-.051.048-.024.096s.081.084.122.079c.513-.06 1.129.116 1.734.495 1.292.808 2.156 2.301 1.928 3.328-.23 1.027-1.466 1.205-2.758.397-1.291-.808-2.156-2.301-1.927-3.328.09-.405.337-.689.714-.822.035-.013.037-.06.004-.107z"/><path d="m67.692 4.158c-.033-.047-.089-.075-.124-.062-.405.143-.67.448-.767.883-.246 1.103.683 2.706 2.07 3.574s2.715.676 2.96-.427c.246-1.102-.682-2.706-2.07-3.574-.65-.407-1.311-.595-1.862-.532-.04.005-.051.048-.024.096s.081.084.122.079c.513-.06 1.129.116 1.734.495 1.292.808 2.156 2.301 1.928 3.328-.23 1.027-1.466 1.205-2.758.397-1.291-.808-2.156-2.301-1.927-3.328.09-.405.337-.689.714-.822.035-.013.037-.06.004-.107z"/><path d="m67.792 6.557a.465.465 0 0 0 .17.187l1.62 1.013c.214.134.437.207.628.206.192-.002.343-.079.427-.216l.268-.435c.103-.168.089-.417-.04-.684a1.693 1.693 0 0 0 -.615-.678l-1.408-.88c-.111-.07-.22-.07-.263.002l-.289.469-.379-.237c-.087-.055-.174-.055-.21-.001l-.14.209c-.02.03-.018.077.005.127.024.05.066.097.115.128l.34.212-.24.39c-.028.047-.024.115.011.188zm.07-1.115c.003-.005.01-.005.019 0l1.59.995-.133.198c-.003.005-.01.005-.019 0l-1.59-.995zm.846.967.58.363c.088.055.175.055.211.001l.14-.208c.02-.031.018-.078-.005-.128a.313.313 0 0 0 -.115-.128l-.542-.339.093-.152 1.055.66a.393.393 0 0 1 .142.153c.03.06.034.117.01.155l-.267.436c-.052.084-.18.085-.31.003l-1.08-.675zm-.178-.111-.102.167c-.013.02-.012.053.005.087a.215.215 0 0 0 .078.086l1.158.724c.213.134.42.132.503-.004l.268-.436c.044-.072.037-.18-.02-.295a.735.735 0 0 0 -.264-.286l-1.106-.692c-.052-.032-.102-.032-.122.001l-.129.21-.331-.208.273-.444c.012-.02.04-.02.07-.001l1.408.88c.21.132.39.33.492.543.103.213.114.412.032.546l-.268.435c-.069.112-.193.175-.349.176a.992.992 0 0 1 -.514-.168l-1.62-1.013a.122.122 0 0 1 -.045-.05c-.006-.012-.014-.033-.003-.05l.255-.416z"/><path d="m67.792 6.557a.465.465 0 0 0 .17.187l1.62 1.013c.214.134.437.207.628.206.192-.002.343-.079.427-.216l.268-.435c.103-.168.089-.417-.04-.684a1.693 1.693 0 0 0 -.615-.678l-1.408-.88c-.111-.07-.22-.07-.263.002l-.289.469-.379-.237c-.087-.055-.174-.055-.21-.001l-.14.209c-.02.03-.018.077.005.127.024.05.066.097.115.128l.34.212-.24.39c-.028.047-.024.115.011.188zm.07-1.115c.003-.005.01-.005.019 0l1.59.995-.133.198c-.003.005-.01.005-.019 0l-1.59-.995zm.846.967.58.363c.088.055.175.055.211.001l.14-.208c.02-.031.018-.078-.005-.128a.313.313 0 0 0 -.115-.128l-.542-.339.093-.152 1.055.66a.393.393 0 0 1 .142.153c.03.06.034.117.01.155l-.267.436c-.052.084-.18.085-.31.003l-1.08-.675zm-.178-.111-.102.167c-.013.02-.012.053.005.087a.215.215 0 0 0 .078.086l1.158.724c.213.134.42.132.503-.004l.268-.436c.044-.072.037-.18-.02-.295a.735.735 0 0 0 -.264-.286l-1.106-.692c-.052-.032-.102-.032-.122.001l-.129.21-.331-.208.273-.444c.012-.02.04-.02.07-.001l1.408.88c.21.132.39.33.492.543.103.213.114.412.032.546l-.268.435c-.069.112-.193.175-.349.176a.992.992 0 0 1 -.514-.168l-1.62-1.013a.122.122 0 0 1 -.045-.05c-.006-.012-.014-.033-.003-.05l.255-.416z"/></g><g clip-path="url(#x)"><path d="m9.637 54.647c-.167-.784-.5-1.483-.938-1.97-.437-.486-.928-.7-1.38-.604s-.813.492-1.015 1.114-.221 1.396-.055 2.18c.167.784.5 1.483.938 1.97.146.161.299.294.455.395.029.019.056-.002.06-.045.006-.044-.014-.094-.042-.113a2.173 2.173 0 0 1 -.43-.373c-.412-.458-.725-1.117-.882-1.855s-.139-1.467.052-2.053c.19-.586.53-.959.955-1.05.426-.09.888.112 1.3.57.413.458.726 1.116.883 1.854.157.739.139 1.468-.051 2.054s-.53.958-.956 1.049c-.206.044-.42.02-.637-.071-.029-.012-.053.015-.054.061 0 .046.022.093.051.105.23.097.457.122.676.076.453-.097.813-.492 1.015-1.114.202-.623.222-1.397.055-2.18z"/><path d="m7.287 52.659c-.014-.046-.046-.073-.071-.06-.291.142-.519.443-.658.87-.352 1.086-.018 2.658.746 3.506.763.848 1.671.655 2.024-.43.352-1.086.017-2.658-.746-3.506-.358-.398-.761-.58-1.135-.516-.027.005-.042.047-.032.094.01.048.039.082.066.077.348-.06.724.11 1.057.48.71.79 1.022 2.254.694 3.265-.328 1.01-1.173 1.19-1.884.4-.711-.789-1.023-2.253-.694-3.264.129-.398.34-.678.612-.81.025-.013.035-.06.021-.106z"/><path d="m6.939 55.018c.01.072.039.138.079.182l.891.99c.118.131.253.202.38.2.126-.003.239-.078.318-.213l.251-.43c.097-.165.13-.41.092-.672a1.292 1.292 0 0 0 -.288-.664l-.775-.86c-.061-.068-.133-.067-.174.003l-.27.463-.21-.232c-.047-.053-.104-.053-.138 0l-.128.206c-.018.03-.025.075-.018.125a.24.24 0 0 0 .053.125l.187.208-.225.384a.292.292 0 0 0 -.025.185zm.238-1.098c.003-.004.008-.004.013 0l.875.972-.121.196c-.003.005-.009.005-.013 0l-.875-.972zm.39.948.32.355c.048.054.105.054.138 0l.128-.205a.193.193 0 0 0 .02-.125.24.24 0 0 0 -.055-.126l-.298-.33.088-.15.58.644a.295.295 0 0 1 .068.15c.01.059.002.115-.02.152l-.252.43c-.048.082-.132.084-.205.003l-.593-.659zm-.098-.108-.096.164a.135.135 0 0 0 -.012.086.165.165 0 0 0 .037.084l.637.708c.118.13.254.127.333-.007l.251-.429a.453.453 0 0 0 .038-.29.554.554 0 0 0 -.125-.28l-.608-.676c-.029-.032-.062-.031-.08.001l-.122.207-.182-.203.257-.438c.01-.019.03-.02.046 0l.775.86c.116.128.2.322.23.53.031.21.004.405-.073.538l-.252.429c-.064.11-.157.172-.26.174s-.213-.056-.31-.163l-.891-.99a.096.096 0 0 1 -.022-.05.08.08 0 0 1 .007-.049l.24-.409z"/></g><g clip-path="url(#y)"><path d="m73.494 32.305.34-.544c.156-.25.171-.665.033-.926-.139-.26-.378-.269-.535-.019l-.34.544a.204.204 0 0 0 -.006.185l.4.756c.029.052.076.054.108.004zm-.345-.846.284-.454c.094-.15.237-.145.32.012a.614.614 0 0 1 -.02.555l-.283.453-.3-.566z"/><path d="m74.25 30.995a1.784 1.784 0 0 0 -.035-.192c-.14-.593-.538-.857-.887-.588l-.126-.238c-.028-.052-.076-.053-.107-.003l-.227.362a.205.205 0 0 0 -.006.185l.1.19-.114.18-.1-.188c-.028-.052-.076-.054-.107-.004l-.227.362a.204.204 0 0 0 -.006.186l.1.189-.113.18a.205.205 0 0 0 -.007.186l.2.378c.028.052.076.053.108.003l.113-.18.902 1.7-.113.18a.204.204 0 0 0 -.007.185l.2.378c.029.052.077.054.108.004l.113-.181.1.189c.028.052.076.053.107.003l.227-.362a.205.205 0 0 0 .007-.185l-.1-.19.113-.18.1.189c.028.052.076.053.107.003l.227-.362a.205.205 0 0 0 .006-.185l-.1-.19c.174-.278.258-.684.222-1.078-.058-.639-.407-1.053-.779-.926zm.456 1.816-.057.09a.205.205 0 0 0 -.006.186l.1.188-.114.182-.1-.19c-.028-.051-.075-.053-.107-.003l-.227.363a.205.205 0 0 0 -.006.185l.1.189-.113.18-.1-.188c-.028-.052-.076-.054-.107-.004l-.114.181-.1-.188.113-.182a.205.205 0 0 0 .007-.185l-1.003-1.889c-.028-.052-.075-.053-.107-.003l-.113.18-.1-.188.113-.181a.205.205 0 0 0 .007-.185l-.1-.19.113-.18.1.188c.028.052.076.054.107.004l.227-.363a.205.205 0 0 0 .006-.185l-.1-.189.113-.18.113.212c.023.043.06.052.091.023a.415.415 0 0 1 .196-.11c.292-.064.548.292.573.794 0 .009.001.017.003.025.011.069.053.106.093.083.197-.112.409-.021.544.234.194.365.174.945-.045 1.296z"/><path d="m74.104 31.678-.51.816a.205.205 0 0 0 -.007.185l.401.755c.028.052.076.054.107.004l.51-.816c.157-.25.172-.665.033-.925-.138-.261-.377-.27-.534-.02zm.401.755-.453.725-.301-.566.453-.725c.095-.15.238-.145.321.011a.614.614 0 0 1 -.02.555z"/><path d="m72.323 29.112c-.94 1.502-1.027 3.988-.197 5.553s2.266 1.616 3.206.114c.938-1.503 1.026-3.987.197-5.553-.83-1.564-2.266-1.616-3.206-.114zm2.909 5.478c-.877 1.402-2.217 1.354-2.992-.106-.776-1.46-.693-3.781.184-5.183.877-1.4 2.216-1.352 2.992.107.775 1.46.693 3.78-.184 5.182z"/><path d="m72.524 29.49c-.814 1.302-.89 3.457-.17 4.813s1.963 1.4 2.778.098c.813-1.302.89-3.455.17-4.812-.72-1.356-1.963-1.4-2.778-.099zm2.507 4.723c-.751 1.201-1.9 1.16-2.564-.092-.665-1.251-.594-3.24.158-4.442.752-1.2 1.899-1.159 2.564.091.665 1.252.594 3.241-.158 4.442z"/></g></g><g clip-path="url(#z)"><path d="m30.177 71.98c-.137.092-.452-.09-.436-.254-.01-.133.181-.18.337-.086.16.09.218.28.099.34zm1.826-.288c-.089.046-.27-.035-.312-.142-.069-.114.046-.207.184-.158.171.043.26.257.128.3zm-4.081-.094c.178.009.324.246.185.303-.099.062-.267-.036-.339-.142-.019-.093.025-.182.154-.161zm3.279-.614c-.13.112-.465-.027-.531-.217-.086-.191.141-.316.365-.196.204.093.297.326.166.413zm-2.82.037c.012.191-.313.214-.495.037-.162-.136-.137-.317 0-.374.197-.047.505.15.495.337zm1.343-.423c.082.16-.021.288-.186.308-.123-.014-.268-.05-.367-.15-.16-.136-.177-.334-.046-.407.055-.042.15-.032.234-.032.151.048.31.15.365.28zm2.737-.385c-.12.1-.426-.055-.444-.22-.035-.14.146-.208.31-.125.169.076.248.278.134.345zm-6.128.325c-.091.105-.379.005-.441-.155-.082-.144.064-.264.24-.197.185.054.306.265.201.351zm2.328-.42c-.194.087-.514.013-.739-.166-.287-.217-.366-.566-.16-.71.203-.169.677-.06.92.215.243.244.229.567-.02.661zm1.347-.096c-.202.122-.593.049-.835-.18-.26-.221-.307-.546-.105-.678.195-.147.614-.066.863.174.261.23.296.56.077.684zm1.154-.49c.054.15-.054.255-.206.273a.621.621 0 0 1 -.469-.273c-.065-.153-.008-.309.173-.318.19-.025.452.142.502.319zm-3.91.436c-.15.117-.51-.023-.606-.233-.125-.22.11-.394.377-.274.265.097.401.403.229.507zm2.822-.952c-.209.071-.53-.015-.745-.205-.227-.19-.311-.467-.185-.623.149-.225.661-.165.941.118.288.257.277.623-.01.71zm-2.578.137c-.202.072-.513.006-.732-.176-.272-.207-.355-.534-.18-.686.176-.175.616-.111.883.134.302.253.314.631.029.728zm3.986-.464c-.17.08-.5-.11-.508-.297-.032-.17.2-.245.396-.13.215.108.285.367.112.427zm-5.704.03c.082.153.025.294-.145.312-.151-.013-.339-.107-.396-.245-.104-.18.079-.317.294-.24.099.032.177.104.247.173zm6.67-.173c-.1.055-.3-.033-.333-.157-.063-.14.14-.206.282-.094.115.077.133.204.052.251zm-7.796.416c-.06.06-.22.027-.3-.062-.108-.096-.068-.238.065-.228.168-.024.345.213.235.29zm4.25-.912c-.287.093-.758-.131-.91-.431-.173-.303.038-.59.406-.538.276.024.589.236.697.47.112.222.027.44-.192.5zm-1.288.07c-.289.1-.773-.13-.92-.437-.167-.297.037-.574.393-.532.325.019.702.31.75.58.045.18-.049.334-.223.388zm2.393-.317c-.211.047-.54-.17-.544-.37-.036-.21.273-.285.506-.123.256.153.274.457.038.493zm-3.784.19c-.166.088-.495-.057-.578-.256-.117-.218.116-.384.38-.268.282.103.409.442.198.525zm-1.53-.893c.146.13.089.314-.089.298-.081.005-.168-.05-.245-.096-.05-.078-.115-.171-.072-.236.043-.118.284-.098.405.034zm6.179-.072c-.108.1-.4-.026-.445-.19-.053-.143.107-.235.28-.161.179.066.278.276.165.35zm-3.2-.138c-.162.09-.498-.054-.578-.254-.125-.22.117-.39.38-.267.277.102.407.438.199.52zm1.266-.37c-.132.09-.433-.038-.503-.211-.076-.142.018-.27.184-.258.131-.004.267.095.358.192.052.107.062.23-.04.277zm-2.863.149c-.128.107-.45-.02-.525-.206-.1-.192.122-.331.35-.213.209.09.309.33.175.419zm-1.047-1.076c.132.102.103.236-.013.267-.112-.013-.255-.077-.287-.185-.057-.145.157-.202.3-.082zm3.996-.116c.01.086-.023.174-.146.158-.167-.002-.324-.218-.216-.293.09-.084.29.014.362.135zm-1.954.003c.031.127-.12.198-.272.137-.093-.026-.156-.103-.21-.17a3.298 3.298 0 0 0 -.022-.106c.023-.054.06-.11.142-.112.143-.024.355.122.362.251z" fill="#fff"/></g><g clip-path="url(#A)"><path d="m51.165 24.156c-.096-.146.097-.453.27-.426.14-.001.187.197.087.35-.095.157-.295.201-.357.076zm.288 1.88c-.047-.093.04-.272.153-.307.12-.062.217.061.165.198-.047.172-.272.248-.318.11zm.13-4.15c-.01.181-.261.313-.32.167-.064-.105.04-.269.152-.335.098-.013.19.038.168.168zm.622 3.384c-.117-.14.031-.472.232-.526.201-.073.331.167.203.386-.1.202-.345.28-.435.14zm-.019-2.875c-.2-.001-.223-.334-.035-.507.144-.155.335-.117.393.027.048.204-.161.503-.358.48zm.435 1.398c-.169.072-.303-.043-.323-.212.017-.124.056-.269.161-.363.144-.154.353-.157.429-.018.043.06.032.156.032.24-.052.152-.16.305-.299.353zm.385 2.815c-.104-.13.06-.43.233-.437.15-.026.22.163.131.324-.082.167-.294.234-.364.113zm-.296-6.265c-.11-.1-.003-.386.165-.439.153-.073.278.084.206.26-.058.184-.28.292-.371.18zm.423 2.401c-.09-.204-.009-.524.18-.74.23-.278.599-.334.749-.114.175.22.058.694-.233.923-.259.23-.599.192-.696-.069zm.092 1.38c-.127-.216-.047-.609.195-.839.235-.25.577-.273.714-.058.153.209.064.63-.189.866-.244.25-.591.262-.72.03zm.506 1.209c-.158.045-.267-.073-.285-.23a.584.584 0 0 1 .29-.457c.162-.056.325.014.333.198.026.196-.152.45-.338.489zm-.43-4.014c-.12-.161.029-.518.25-.6.233-.112.414.14.286.404-.104.262-.427.38-.535.196zm.981 2.943c-.073-.218.02-.54.221-.745.202-.217.494-.284.656-.144.236.168.169.685-.13.95-.273.276-.657.238-.747-.061zm-.125-2.636c-.074-.21-.003-.524.19-.733.22-.263.564-.324.723-.134.183.191.112.634-.148.89-.267.288-.665.274-.765-.023zm.458 4.093c-.083-.18.12-.501.317-.496.178-.021.255.22.132.412-.114.212-.387.264-.449.084zm.01-5.812c-.16.073-.309.004-.326-.17.014-.153.115-.338.26-.386.191-.093.333.102.252.316a.613.613 0 0 1 -.185.24zm.133 6.806c-.057-.105.037-.303.169-.328.147-.055.215.157.096.294-.082.112-.216.12-.265.034zm-.379-7.97c-.063-.066-.027-.226.067-.301.102-.103.252-.053.24.082.023.173-.227.336-.307.218zm.927 4.394c-.096-.3.144-.764.46-.897.32-.155.62.08.563.451-.027.28-.252.584-.498.677-.236.098-.463-.003-.525-.231zm-.063-1.317c-.103-.302.14-.779.465-.908.314-.148.604.08.557.44-.022.328-.33.692-.616.721a.349.349 0 0 1 -.406-.253zm.315 2.46c-.048-.22.183-.538.393-.529.222-.021.297.298.126.525-.163.25-.483.246-.519.003zm-.173-3.869c-.09-.175.065-.5.274-.57.23-.104.404.146.28.405-.11.281-.468.386-.554.165zm.951-1.495c-.136.14-.33.069-.312-.111-.005-.084.053-.168.102-.243.083-.045.181-.105.25-.057.123.052.1.296-.04.41zm.03 6.3c-.104-.118.03-.406.203-.44.151-.045.247.125.168.296-.07.178-.292.264-.37.143zm.17-3.25c-.095-.171.06-.504.27-.571.232-.112.409.147.279.407-.11.274-.464.383-.55.164zm.38 1.315c-.095-.14.042-.438.225-.497.15-.068.284.037.27.206.003.133-.102.265-.205.35-.113.046-.242.047-.29-.059zm-.136-2.926c-.112-.138.024-.457.22-.52.203-.09.347.147.221.37-.097.208-.35.292-.441.15zm1.139-.991c-.11.127-.25.089-.281-.031.015-.114.082-.255.196-.28.153-.048.211.174.085.311zm.092 4.079c-.09.005-.183-.036-.165-.16.003-.17.232-.315.31-.2.087.098-.017.295-.145.36zm.01-1.991c-.133.023-.206-.135-.141-.286.028-.094.11-.152.18-.202l.112-.015c.057.027.115.068.117.152.024.148-.131.354-.267.351z" fill="#fff"/></g><g clip-path="url(#B)"><path d="m59.515 57.207-.002-.003-1.208-.92.943-2.252.003-.007.007-.054-.38-1.967a.034.034 0 0 0 -.004-.015l.001-.005-.016-.014a.025.025 0 0 0 -.02-.017l-1.591-.86-.01-.006-2.24.585c-.012.003-.016.006-.046.034a27.19 27.19 0 0 0 -.064.057l-.225.204-.68.618-.989.898-.003.003-.038.044-.004.024-.969 2.311-.002.007-.008.054.386 1.963a.047.047 0 0 0 0 .02.03.03 0 0 0 .01.016l.016.014 1.588.848c.003.005.007.01.012.012a.033.033 0 0 0 .02.001.045.045 0 0 0 .025 0l2.221-.58.01-.01a.076.076 0 0 0 .014-.01h.002l1.893-1.724 1.188.91a.05.05 0 0 0 .029.01.138.138 0 0 0 .072-.018.12.12 0 0 0 .041-.042.136.136 0 0 0 .029-.067.092.092 0 0 0 -.01-.062zm-1.045-3.096.3-1.548.268 1.4zm.542.043-.685 1.648.117-1.5zm-5.547 3.113.386 1.205-1.215-.654zm2.6-4.372 1.074-1.499.417 1.299zm1.698-.265-.386-1.205 1.215.654zm.065.153.822-.55-.318 1.645-.003.018zm-4.831 2.505.002-.017.125-1.595.43.087.297.059zm3.985-3.943-1.077 1.503-.736-1.03zm1.205 3.024-.913 1.566-.278-.766-.154-.449 1.345-.35zm-1.318.16.808-1.538.536 1.187-1.344.35zm-.829-1.435 1.508-.204-.823 1.564zm-.261 3.239.888-1.455.44 1.235-1.561.597zm-1.075-1.24 1.15-1.88.345.7.351.699-1.846.482zm1.82-.29-1.144 1.88-.351-.699-.35-.699zm-1.05-1.27-.906 1.484-.44-1.235 1.555-.595-.21.345zm-.286 3.27-1.501.203.62-1.182.202-.383zm-2.14-1.277.912-1.564.276.785.155.428zm1.317-.16-.808 1.538-.535-1.187 1.343-.35zm3.867-.758v.004l-.128 1.609-.43-.087-.297-.059zm-5.001-1.13 1.49-1.36-.757 1.504zm.17 3.636-.823.55.32-1.66.002-.004zm1.929-.067.73 1.031-1.813.474zm2.667-.628-1.49 1.36.757-1.504zm-3.83-2.84.818-1.62.728 1.028-1.545.592zm-1.951 2.164.685-1.648-.117 1.5zm.542.043-.3 1.548-.268-1.4zm2.405 1.216-1.073 1.498-.417-1.298 1.491-.2zm1.897-.684-.817 1.62-.728-1.028z" fill="#fff"/></g></g></svg>